<svg width="1126.2" height="260" xmlns="http://www.w3.org/2000/svg">
 <style>.st0{fill:none;stroke:#d3ccb0;stroke-width:5;stroke-miterlimit:10}</style>

 <g>
  <title>background</title>
  <rect fill="none" id="canvas_background" height="262" width="1128.2" y="-1" x="-1"/>
 </g>
 <g>
  <title>Layer 1</title>
  <g stroke="null" id="Layer_2_copy">
   <path stroke="null" id="svg_1" d="m351.3,74.52032l689.2,0m-690.1,188.37969l689.2,0" class="st0"/>
   <g stroke="null" id="svg_2">
    <path stroke="null" id="svg_3" d="m36.3,106.68011l150,-87.96022m0.2,-6.17638l123.7,79.1216" class="st0"/>
    <path stroke="null" id="svg_4" fill="#518abe" d="m307.7,219.45235l-258.1,20.65894c-14.8,1.17138 -27.8,-10.75543 -28.9,-26.51585l-5.7,-81.46437c-1.1,-15.76043 10.1,-29.60404 24.9,-30.77543l258.1,-20.65894c14.8,-1.17138 27.8,10.75543 28.9,26.51585l5.7,81.46437c1.1,15.76043 -10.1,29.60404 -24.9,30.77543z"/>
    <path stroke="null" id="svg_5" fill="#fff" d="m65,128.19096c7.5,-0.63894 14.1,0.53245 19.8,3.30117c5.6,2.87521 10.1,7.13479 13.3,12.88521c3.2,5.75043 5.1,12.77872 5.7,20.87192c0.4,5.9634 0,11.50085 -1.1,16.50585c-1.2,5.005 -3.2,9.47755 -6,13.31117c-2.8,3.83362 -6.3,6.92181 -10.6,9.15809s-9.3,3.62064 -15,4.0466c-5.7,0.42596 -10.9,-0.10649 -15.5,-1.70383s-8.6,-4.0466 -11.9,-7.34777c-3.3,-3.30117 -5.8,-7.45426 -7.7,-12.35277c-1.9,-4.89851 -3,-10.22298 -3.5,-16.07989c-0.4,-5.9634 0,-11.50085 1.3,-16.61234c1.3,-5.11149 3.3,-9.47755 6.1,-13.20468s6.3,-6.70883 10.6,-8.94511s8.9,-3.40766 14.5,-3.83362zm23.8,38.22968c-0.4,-5.64394 -1.6,-10.54245 -3.6,-14.58904c-2,-4.0466 -4.7,-6.92181 -8,-8.83862c-3.3,-1.91681 -7.1,-2.66223 -11.2,-2.34277c-2.9,0.21298 -5.6,1.06489 -8,2.44926c-2.4,1.38436 -4.4,3.30117 -6.1,5.64394c-1.6,2.44926 -2.9,5.43096 -3.7,8.94511c-0.8,3.62064 -1,7.56075 -0.7,11.92681c0.3,4.36606 1.1,8.30617 2.4,11.82032c1.3,3.51415 3,6.28287 5,8.51915c2.1,2.23628 4.4,3.72713 6.9,4.68553c2.5,0.9584 5.3,1.38436 8.2,1.06489c3.8,-0.31947 7.2,-1.59734 10.2,-3.83362c3,-2.23628 5.3,-5.53745 6.9,-9.90351c1.5,-4.25957 2.1,-9.47755 1.7,-15.54745zm56.4,4.25957l-13.5,1.06489l1.5,21.93681c0.2,3.08819 -0.3,5.53745 -1.6,7.34777c-1.3,1.70383 -3,2.66223 -5.1,2.87521c-2.2,0.21298 -4.1,-0.53245 -5.5,-2.0233c-1.5,-1.49085 -2.3,-3.83362 -2.5,-6.92181l-4.2,-59.74054c-0.2,-3.40766 0.3,-5.9634 1.7,-7.56075s3.7,-2.55574 6.9,-2.76872l18.9,-1.49085c5.6,-0.42596 9.9,-0.31947 13,0.31947c3,0.63894 5.7,1.91681 8,3.72713c2.3,1.91681 4.1,4.25957 5.5,7.13479c1.3,2.87521 2.1,6.17638 2.4,9.90351c0.6,7.88021 -1.3,14.0566 -5.6,18.52915c-4.2,4.36606 -10.9,6.92181 -19.9,7.66723zm-6.1,-35.24798l-9.9,0.74543l1.7,23.74713l9.9,-0.74543c3.5,-0.31947 6.4,-0.85191 8.6,-1.81032c2.3,-0.9584 4,-2.34277 5.1,-4.25957c1.1,-1.81032 1.5,-4.25957 1.3,-7.0283c-0.2,-3.40766 -1.4,-6.17638 -3.4,-8.09319c-2.3,-2.23628 -6.7,-3.08819 -13.3,-2.55574zm91.2,-6.92181l-33.2,2.66223l1.3,19.0616l30.6,-2.44926c2.3,-0.21298 4,0.21298 5.2,1.17138c1.2,0.9584 1.8,2.34277 2,4.15309c0.1,1.81032 -0.3,3.19468 -1.3,4.47255s-2.7,1.91681 -4.9,2.0233l-30.6,2.44926l1.6,22.0433l34.4,-2.76872c2.3,-0.21298 4.1,0.21298 5.4,1.27787c1.3,1.06489 2,2.55574 2.1,4.47255c0.1,1.81032 -0.4,3.40766 -1.4,4.57904c-1.1,1.27787 -2.8,1.91681 -5.1,2.12979l-40.1,3.19468c-3.2,0.21298 -5.6,-0.31947 -7.1,-1.70383s-2.4,-3.83362 -2.6,-7.13479l-4.1,-58.24968c-0.2,-2.23628 0,-4.15309 0.6,-5.64394c0.5,-1.49085 1.4,-2.55574 2.7,-3.40766s3,-1.17138 5.1,-1.38436l38.9,-3.08819c2.3,-0.21298 4.1,0.21298 5.4,1.27787c1.2,1.06489 1.9,2.44926 2,4.25957c0.1,1.81032 -0.3,3.30117 -1.4,4.57904c-1.5,1.06489 -3.2,1.81032 -5.5,2.0233zm38.8,-7.13479l31.6,43.44766l-3.2,-46.1099c-0.2,-2.9817 0.2,-5.32447 1.3,-6.92181s2.7,-2.44926 4.7,-2.66223c2.1,-0.21298 3.8,0.42596 5.2,1.81032c1.3,1.38436 2.1,3.62064 2.3,6.60234l4.3,61.01841c0.5,6.81532 -1.9,10.43596 -7.2,10.86192c-1.3,0.10649 -2.5,0 -3.6,-0.31947s-2.1,-0.85191 -3.1,-1.70383s-1.9,-1.81032 -2.8,-2.87521c-0.9,-1.06489 -1.8,-2.23628 -2.6,-3.40766l-31,-43.0217l3.2,45.47096c0.2,2.9817 -0.3,5.21798 -1.5,6.92181c-1.2,1.59734 -2.8,2.55574 -4.8,2.66223c-2.1,0.21298 -3.8,-0.42596 -5.2,-1.91681c-1.4,-1.38436 -2.2,-3.62064 -2.4,-6.49585l-4.2,-59.84703c-0.2,-2.55574 -0.1,-4.57904 0.4,-6.06989c0.5,-1.59734 1.5,-2.9817 2.9,-4.15309s2.9,-1.70383 4.6,-1.91681c1.3,-0.10649 2.5,0 3.5,0.42596s1.8,0.9584 2.6,1.70383c0.8,0.74543 1.6,1.70383 2.4,2.87521c0.8,1.06489 1.7,2.34277 2.6,3.62064z"/>
    <circle stroke="null" id="svg_6" r="12.3" cy="13.28893" cx="189.4"/>
   </g>
   <g stroke="null" id="svg_7">
    <path stroke="null" id="svg_8" d="m380.5,179.73181c0,23.74713 0.6,34.18309 3.3,37.0583c2.4,2.55574 6.4,3.72713 18.2,3.72713c8.1,0 14.7,-0.21298 18.4,-4.89851c2,-2.55574 3.5,-6.60234 3.9,-9.69053c0.2,-1.27787 0.5,-2.12979 1.4,-2.12979c0.8,0 0.9,0.63894 0.9,2.44926s-1.1,11.50085 -2.3,16.18638c-1.1,3.72713 -1.5,4.36606 -9.6,4.36606c-10.9,0 -18.8,-0.31947 -25.2,-0.53245c-6.4,-0.31947 -11.1,-0.53245 -15.5,-0.53245c-0.6,0 -3.2,0.21298 -6.2,0.21298c-3,0.21298 -6.4,0.31947 -8.7,0.31947c-1.7,0 -2.4,-0.31947 -2.4,-1.27787c0,-0.53245 0.3,-0.9584 1.2,-0.9584c1.4,0 3.2,-0.31947 4.6,-0.63894c3,-0.63894 3.8,-4.15309 4.4,-8.94511c0.8,-6.81532 0.8,-19.59404 0.8,-35.14149l0,-28.43266c0,-25.23798 0,-29.81702 -0.3,-34.92851c-0.3,-5.53745 -1.5,-8.09319 -6.5,-9.26458c-1.2,-0.31947 -3.8,-0.53245 -5.2,-0.53245c-0.6,0 -1.2,-0.31947 -1.2,-0.9584c0,-0.9584 0.8,-1.27787 2.4,-1.27787c6.8,0 16.4,0.53245 17.2,0.53245c0.8,0 11.8,-0.53245 16.4,-0.53245c1.7,0 2.4,0.31947 2.4,1.27787c0,0.63894 -0.6,0.9584 -1.2,0.9584c-1.1,0 -3.2,0.21298 -5,0.53245c-4.4,0.85191 -5.6,3.51415 -5.9,9.26458c-0.3,5.21798 -0.3,9.69053 -0.3,34.92851l0,28.85862zm89.9,-0.31947c0,15.54745 0,28.32617 0.8,35.14149c0.5,4.68553 1.4,8.19968 5.9,8.94511c2.1,0.31947 5.5,0.63894 6.8,0.63894c0.9,0 1.2,0.53245 1.2,0.9584c0,0.85191 -0.8,1.27787 -2.4,1.27787c-8.4,0 -17.9,-0.53245 -18.7,-0.53245c-0.8,0 -10.3,0.53245 -14.9,0.53245c-1.7,0 -2.4,-0.31947 -2.4,-1.27787c0,-0.53245 0.3,-0.9584 1.2,-0.9584c1.4,0 3.2,-0.31947 4.6,-0.63894c3,-0.63894 3.8,-4.15309 4.4,-8.94511c0.8,-6.81532 0.8,-19.59404 0.8,-35.14149l0,-28.43266c0,-25.23798 0,-29.81702 -0.3,-34.92851c-0.3,-5.53745 -1.8,-8.19968 -5.2,-9.0516c-1.7,-0.53245 -3.6,-0.63894 -4.7,-0.63894c-0.6,0 -1.2,-0.31947 -1.2,-0.9584c0,-0.9584 0.8,-1.27787 2.4,-1.27787c5,0 14.6,0.53245 15.3,0.53245c0.8,0 10.3,-0.53245 14.9,-0.53245c1.7,0 2.4,0.31947 2.4,1.27787c0,0.63894 -0.6,0.9584 -1.2,0.9584c-1.1,0 -2,0.21298 -3.8,0.53245c-4.1,0.85191 -5.3,3.51415 -5.6,9.26458c-0.3,5.21798 -0.3,9.69053 -0.3,34.92851l0,28.32617zm54.1,-28.43266c0,-25.23798 0,-29.81702 -0.3,-34.92851c-0.3,-5.53745 -1.5,-8.09319 -6.5,-9.26458c-1.2,-0.31947 -3.8,-0.53245 -5.2,-0.53245c-0.6,0 -1.2,-0.31947 -1.2,-0.9584c0,-0.9584 0.8,-1.27787 2.4,-1.27787c6.8,0 16.4,0.53245 17.2,0.53245c3.6,0 9.6,-0.53245 16.6,-0.53245c24.9,0 30.4,16.18638 30.4,24.27958c0,13.31117 -7.1,21.19138 -14.3,29.0716c11.2,3.72713 26.3,15.22798 26.3,34.18309c0,17.35777 -12.8,35.24798 -38.7,35.24798c-1.7,0 -6.5,-0.31947 -10.9,-0.53245c-4.4,-0.31947 -8.7,-0.53245 -9.3,-0.53245c-0.3,0 -2.9,0 -6.1,0.21298c-3,0 -6.5,0.31947 -8.8,0.31947c-1.7,0 -2.4,-0.31947 -2.4,-1.27787c0,-0.53245 0.3,-0.9584 1.2,-0.9584c1.4,0 3.2,-0.31947 4.6,-0.63894c3,-0.63894 3.8,-4.15309 4.4,-8.94511c0.8,-6.81532 0.8,-19.59404 0.8,-35.14149l0,-28.32617l-0.2,0zm12.1,3.51415c0,1.17138 0.3,1.49085 1.1,1.81032c0.9,0.21298 3.6,0.63894 9.3,0.63894c8.5,0 10.6,-0.31947 13.8,-4.15309s5.5,-9.69053 5.5,-16.29287c0,-13.41766 -5.6,-27.79373 -20.5,-27.79373c-1.7,0 -4.9,0.21298 -7.3,0.85191c-1.4,0.31947 -1.8,0.85191 -1.8,1.81032l0,43.12819l-0.1,0zm0,17.14479c0,12.45926 0,32.47926 0.2,34.92851c0.5,7.88021 0.5,10.22298 5.2,12.56575c4.1,2.12979 10.6,2.44926 13.4,2.44926c8.2,0 21.4,-4.68553 21.4,-23.0017c0,-9.69053 -3,-23.74713 -14.7,-32.37277c-5.2,-3.72713 -9,-4.25957 -12.6,-4.68553c-2,-0.31947 -9.6,-0.31947 -11.8,-0.31947c-0.6,0 -0.9,0.31947 -0.9,1.17138l0,9.26458l-0.2,0zm90,-20.65894c0,-25.23798 0,-29.81702 -0.3,-34.92851c-0.3,-5.53745 -1.5,-8.09319 -6.5,-9.26458c-1.2,-0.31947 -3.8,-0.53245 -5.2,-0.53245c-0.6,0 -1.2,-0.31947 -1.2,-0.9584c0,-0.9584 0.8,-1.27787 2.4,-1.27787c6.8,0 16.4,0.53245 17.2,0.53245c1.7,0 13.2,-0.53245 17.9,-0.53245c9.6,0 19.7,0.9584 27.8,7.13479c3.8,2.87521 10.5,10.86192 10.5,22.0433c0,11.92681 -4.7,23.96011 -18.4,37.37777c12.5,17.0383 22.8,31.41436 31.6,41.42436c8.2,9.26458 14.7,10.9684 18.5,11.60734c2.9,0.53245 5,0.53245 5.9,0.53245c0.8,0 1.4,0.53245 1.4,0.9584c0,0.9584 -0.9,1.27787 -3.6,1.27787l-10.8,0c-8.5,0 -12.3,-0.85191 -16.3,-3.08819c-6.5,-3.72713 -11.8,-11.60734 -20.5,-23.74713c-6.4,-8.94511 -13.5,-19.70053 -16.6,-23.96011c-0.6,-0.63894 -1.1,-0.9584 -2,-0.9584l-18.7,-0.31947c-0.8,0 -1.1,0.53245 -1.1,1.27787l0,3.83362c0,15.54745 0,28.32617 0.8,35.14149c0.5,4.68553 1.4,8.19968 5.9,8.94511c2.1,0.31947 5.5,0.63894 6.8,0.63894c0.9,0 1.2,0.53245 1.2,0.9584c0,0.85191 -0.8,1.27787 -2.4,1.27787c-8.4,0 -17.9,-0.53245 -18.7,-0.53245c-0.2,0 -9.7,0.53245 -14.3,0.53245c-1.7,0 -2.4,-0.31947 -2.4,-1.27787c0,-0.53245 0.3,-0.9584 1.2,-0.9584c1.4,0 3.2,-0.31947 4.6,-0.63894c3,-0.63894 3.8,-4.15309 4.4,-8.94511c0.8,-6.81532 0.8,-19.59404 0.8,-35.14149l0,-28.43266l0.1,0zm12.1,14.0566c0,0.85191 0.3,1.49085 1.1,1.91681c2.3,1.49085 9.3,2.55574 16,2.55574c3.6,0 7.9,-0.53245 11.4,-3.08819c5.3,-3.83362 9.3,-12.56575 9.3,-24.91851c0,-20.23298 -10,-32.37277 -26.3,-32.37277c-4.6,0 -8.7,0.53245 -10.2,0.9584c-0.8,0.31947 -1.2,0.9584 -1.2,1.91681l0,53.03171l-0.1,0z"/>
    <path stroke="null" id="svg_9" d="m763.7,108.06447c1.8,-5.32447 2.4,-6.28287 3.3,-6.28287c0.9,0 1.5,0.85191 3.3,5.85692c2.3,6.17638 26.1,72.94522 35.4,97.54426c5.5,14.37606 9.9,17.0383 13.1,17.9967c2.3,0.85191 4.6,0.9584 6.1,0.9584c0.9,0 1.5,0.21298 1.5,0.9584c0,0.9584 -1.4,1.27787 -3,1.27787c-2.3,0 -13.4,0 -23.9,-0.31947c-2.9,-0.21298 -4.6,-0.21298 -4.6,-1.17138c0,-0.63894 0.5,-0.9584 1.1,-1.17138c0.9,-0.31947 1.8,-1.81032 0.9,-4.36606l-14.1,-39.82702c-0.3,-0.63894 -0.6,-0.9584 -1.4,-0.9584l-32.7,0c-0.8,0 -1.2,0.53245 -1.5,1.27787l-9.1,28.64564c-1.4,4.0466 -2.1,7.88021 -2.1,10.86192c0,3.19468 3.2,4.68553 5.8,4.68553l1.5,0c1.1,0 1.5,0.31947 1.5,0.9584c0,0.9584 -0.9,1.27787 -2.3,1.27787c-3.6,0 -10.2,-0.53245 -11.8,-0.53245s-10,0.53245 -17.2,0.53245c-2,0 -2.9,-0.31947 -2.9,-1.27787c0,-0.63894 0.6,-0.9584 1.4,-0.9584c1.1,0 3.2,-0.21298 4.4,-0.31947c7,-0.9584 10,-7.13479 12.8,-15.22798l34.5,-100.41947zm15.8,64.74554c0.8,0 0.8,-0.53245 0.6,-1.17138l-14.4,-43.66064c-0.8,-2.44926 -1.5,-2.44926 -2.3,0l-13.4,43.66064c-0.3,0.85191 0,1.17138 0.5,1.17138l29,0zm68.7,-21.83032c0,-25.23798 0,-29.81702 -0.3,-34.92851c-0.3,-5.53745 -1.5,-8.09319 -6.5,-9.26458c-1.2,-0.31947 -3.8,-0.53245 -5.2,-0.53245c-0.6,0 -1.2,-0.31947 -1.2,-0.9584c0,-0.9584 0.8,-1.27787 2.4,-1.27787c6.8,0 16.4,0.53245 17.2,0.53245c1.7,0 13.2,-0.53245 17.9,-0.53245c9.6,0 19.7,0.9584 27.8,7.13479c3.8,2.87521 10.5,10.86192 10.5,22.0433c0,11.92681 -4.7,23.96011 -18.4,37.37777c12.5,17.0383 22.8,31.41436 31.6,41.42436c8.2,9.26458 14.7,10.9684 18.5,11.60734c2.9,0.53245 5,0.53245 5.9,0.53245c0.8,0 1.4,0.53245 1.4,0.9584c0,0.9584 -0.9,1.27787 -3.6,1.27787l-10.8,0c-8.5,0 -12.3,-0.85191 -16.3,-3.08819c-6.5,-3.72713 -11.8,-11.60734 -20.5,-23.74713c-6.4,-8.94511 -13.5,-19.70053 -16.6,-23.96011c-0.6,-0.63894 -1.1,-0.9584 -2,-0.9584l-18.7,-0.31947c-0.8,0 -1.1,0.53245 -1.1,1.27787l0,3.83362c0,15.54745 0,28.32617 0.8,35.14149c0.5,4.68553 1.4,8.19968 5.9,8.94511c2.1,0.31947 5.5,0.63894 6.8,0.63894c0.9,0 1.2,0.53245 1.2,0.9584c0,0.85191 -0.8,1.27787 -2.4,1.27787c-8.4,0 -17.9,-0.53245 -18.7,-0.53245c-0.2,0 -9.7,0.53245 -14.3,0.53245c-1.7,0 -2.4,-0.31947 -2.4,-1.27787c0,-0.53245 0.3,-0.9584 1.2,-0.9584c1.4,0 3.2,-0.31947 4.6,-0.63894c3,-0.63894 3.8,-4.15309 4.4,-8.94511c0.8,-6.81532 0.8,-19.59404 0.8,-35.14149l0,-28.43266l0.1,0zm12.2,14.0566c0,0.85191 0.3,1.49085 1.1,1.91681c2.3,1.49085 9.3,2.55574 16,2.55574c3.6,0 7.9,-0.53245 11.4,-3.08819c5.3,-3.83362 9.3,-12.56575 9.3,-24.91851c0,-20.23298 -10,-32.37277 -26.3,-32.37277c-4.6,0 -8.7,0.53245 -10.2,0.9584c-0.8,0.31947 -1.2,0.9584 -1.2,1.91681l0,53.03171l-0.1,0zm116.2,19.38107c0,-8.73213 -1.5,-12.24628 -3.5,-17.0383c-1.1,-2.55574 -21.4,-38.22968 -26.7,-46.64234c-3.8,-5.9634 -7.6,-10.01 -10.3,-11.92681c-2.3,-1.59734 -5.2,-2.55574 -6.5,-2.55574c-0.8,0 -1.5,-0.31947 -1.5,-1.17138c0,-0.63894 0.6,-1.17138 2,-1.17138c2.9,0 14.3,0.53245 15,0.53245c1.1,0 6.8,-0.53245 12.8,-0.53245c1.7,0 2,0.53245 2,1.17138s-0.9,0.85191 -2.3,1.49085c-1.2,0.63894 -2,1.59734 -2,2.87521c0,1.91681 0.8,3.83362 2,6.28287c2.4,4.68553 25.2,46.42936 28,51.1149c2.9,-6.81532 22.2,-42.27628 25.2,-47.60075c2,-3.40766 2.6,-6.17638 2.6,-8.19968c0,-2.23628 -0.6,-4.0466 -2.4,-4.57904c-1.4,-0.53245 -2.3,-0.85191 -2.3,-1.59734c0,-0.63894 0.9,-0.9584 2.4,-0.9584c3.9,0 8.8,0.53245 10,0.53245c0.9,0 11.8,-0.53245 14.7,-0.53245c1.1,0 2,0.31947 2,0.9584c0,0.85191 -0.8,1.27787 -2,1.27787c-1.7,0 -4.6,0.63894 -7,2.23628c-3,1.91681 -4.7,3.83362 -8.1,8.19968c-5,6.49585 -26.3,44.51256 -29,51.43437c-2.3,5.85692 -2.3,10.86192 -2.3,16.18638l0,13.95011c0,2.55574 0,9.37106 0.5,16.18638c0.3,4.68553 1.7,8.19968 6.2,8.94511c2.1,0.31947 5.5,0.63894 6.8,0.63894c0.9,0 1.2,0.53245 1.2,0.9584c0,0.85191 -0.8,1.27787 -2.4,1.27787c-8.4,0 -17.9,-0.53245 -18.7,-0.53245s-10.3,0.53245 -14.9,0.53245c-1.7,0 -2.4,-0.31947 -2.4,-1.27787c0,-0.53245 0.3,-0.9584 1.2,-0.9584c1.4,0 3.2,-0.31947 4.6,-0.63894c3,-0.63894 4.4,-4.15309 4.7,-8.94511c0.5,-6.81532 0.5,-13.63064 0.5,-16.18638l0,-13.73713l-0.1,0z"/>
   </g>
  </g>
  <text stroke="#000" transform="matrix(2.3430185317993164,0,0,2.4772071838378906,-577.435014680028,-113.46797680854797) " xml:space="preserve" text-anchor="start" font-family="Helvetica, Arial, sans-serif" font-size="24" id="svg_10" y="71.5" x="413.6" stroke-width="0" fill="#000000"/>
  <text stroke="#000" transform="rotate(-174.8245391845703 470.27343750000006,49.10313415527343) matrix(1,0,0,-2.2888364791870117,0,262.64442570507526) " xml:space="preserve" text-anchor="start" font-family="Helvetica, Arial, sans-serif" font-size="24" id="svg_11" y="101.5" x="463.6" fill-opacity="null" stroke-opacity="null" stroke-width="0" fill="#000000"/>
  <text stroke="#000" transform="matrix(0.10175438225269318,0,0,0.7759626507759094,442.79298428609036,21.525088443420827) " xml:space="preserve" text-anchor="start" font-family="Helvetica, Arial, sans-serif" font-size="24" id="svg_12" y="117.5" x="479.6" fill-opacity="null" stroke-opacity="null" stroke-width="0" fill="#000000"/>
  <text stroke="#000" transform="matrix(2.4463276863098145,0,0,2.172295331954956,-508.5197749584913,-10.019461665302515) " xml:space="preserve" text-anchor="start" font-family="Helvetica, Arial, sans-serif" font-size="32" id="svg_13" y="30.5" x="354.6" fill-opacity="null" stroke-opacity="null" stroke-width="0" fill="#000000">Powered by</text>
 </g>
</svg>